<?xml version="1.0" encoding="UTF-8"?>
<svg version="1.1" xmlns="http://www.w3.org/2000/svg" width="340" height="100">
<path d="M0 0 C11.88 0 23.76 0 36 0 C36 0.66 36 1.32 36 2 C34.865625 2.28875 33.73125 2.5775 32.5625 2.875 C31.386875 3.24625 30.21125 3.6175 29 4 C27.68638302 6.62723396 27.78746091 8.72610561 27.68359375 11.6640625 C27.64169922 12.78554688 27.59980469 13.90703125 27.55664062 15.0625 C27.51732422 16.238125 27.47800781 17.41375 27.4375 18.625 C27.39431641 19.80835937 27.35113281 20.99171875 27.30664062 22.2109375 C27.20032662 25.14047907 27.09963783 28.07022377 27 31 C34.26 31 41.52 31 49 31 C48.505 18.13 48.505 18.13 48 5 C45.36 4.01 42.72 3.02 40 2 C40 1.34 40 0.68 40 0 C51.88 0 63.76 0 76 0 C76 0.66 76 1.32 76 2 C75.43410156 2.17015625 74.86820312 2.3403125 74.28515625 2.515625 C73.18494141 2.87914062 73.18494141 2.87914062 72.0625 3.25 C70.96615234 3.59804687 70.96615234 3.59804687 69.84765625 3.953125 C67.84518585 4.81836441 67.84518585 4.81836441 67.39360046 6.76087952 C66.96933535 9.17444552 66.86577197 11.4220309 66.85473633 13.87280273 C66.84835648 14.837379 66.84197662 15.80195526 66.83540344 16.79576111 C66.83429062 17.83124588 66.8331778 18.86673065 66.83203125 19.93359375 C66.82870285 21.00368179 66.82537445 22.07376984 66.82194519 23.17628479 C66.81688512 25.43823822 66.81453658 27.70019911 66.81469727 29.9621582 C66.81251052 33.42086076 66.79434413 36.87924447 66.77539062 40.33789062 C66.77245657 42.53645724 66.77047186 44.73502538 66.76953125 46.93359375 C66.75875298 48.48378456 66.75875298 48.48378456 66.74775696 50.06529236 C66.7523719 51.51688499 66.7523719 51.51688499 66.75708008 52.99780273 C66.75565506 53.84511459 66.75423004 54.69242645 66.75276184 55.56541443 C67.0416198 58.40983542 67.6525053 60.47560941 69 63 C72.53514293 64.37967524 72.53514293 64.37967524 76 65 C76 65.66 76 66.32 76 67 C64.12 67 52.24 67 40 67 C40 66.34 40 65.68 40 65 C41.134375 64.71125 42.26875 64.4225 43.4375 64.125 C44.613125 63.75375 45.78875 63.3825 47 63 C48.34106405 60.3178719 48.21450419 58.11601968 48.31640625 55.1171875 C48.37924805 53.36728516 48.37924805 53.36728516 48.44335938 51.58203125 C48.48267578 50.35871094 48.52199219 49.13539062 48.5625 47.875 C48.62727539 46.02841797 48.62727539 46.02841797 48.69335938 44.14453125 C48.79968623 41.09649488 48.90036972 38.04826261 49 35 C41.74 35 34.48 35 27 35 C27.33 44.24 27.66 53.48 28 63 C30.64 63.66 33.28 64.32 36 65 C36 65.66 36 66.32 36 67 C24.12 67 12.24 67 0 67 C0 66.34 0 65.68 0 65 C2.97 64.34 5.94 63.68 9 63 C9 43.53 9 24.06 9 4 C4.545 3.01 4.545 3.01 0 2 C0 1.34 0 0.68 0 0 Z " fill="#FFFFFF" transform="translate(264,4)"/>
<path d="M0 0 C11.88 0 23.76 0 36 0 C36 0.66 36 1.32 36 2 C33.03 2.99 30.06 3.98 27 5 C26.92573191 11.86846563 26.8713413 18.73669644 26.83520508 25.60546875 C26.82013739 27.94112216 26.79967951 30.27674737 26.77368164 32.61230469 C26.73721042 35.97337819 26.7202531 39.33407692 26.70703125 42.6953125 C26.69154739 43.73615997 26.67606354 44.77700745 26.66011047 45.84939575 C26.65885324 51.28996382 26.78927951 55.36971943 30 60 C34.16198017 62.66366731 36.75516518 63.3441047 41.625 62.5 C45.8781552 61.32621611 48.24303423 59.50886552 51 56 C55.56189196 47.90767139 54.18626444 37.12088936 54.18530273 28.06933594 C54.18750819 25.74135547 54.20577287 23.41383569 54.22460938 21.0859375 C54.22754076 19.5937516 54.22952726 18.10156348 54.23046875 16.609375 C54.23765427 15.91970642 54.24483978 15.23003784 54.25224304 14.51947021 C54.23372921 10.60035511 53.97423674 7.43075823 52 4 C48.46485707 2.62032476 48.46485707 2.62032476 45 2 C45 1.34 45 0.68 45 0 C53.25 0 61.5 0 70 0 C70 0.66 70 1.32 70 2 C69.43410156 2.18175781 68.86820312 2.36351562 68.28515625 2.55078125 C67.18494141 2.92783203 67.18494141 2.92783203 66.0625 3.3125 C64.96615234 3.67794922 64.96615234 3.67794922 63.84765625 4.05078125 C61.64067976 4.91240441 61.64067976 4.91240441 61 8 C60.90175777 9.34852282 60.85461449 10.70118223 60.84228516 12.05322266 C60.82689194 13.2706163 60.82689194 13.2706163 60.81118774 14.51260376 C60.80388641 15.38758514 60.79658508 16.26256653 60.7890625 17.1640625 C60.76097666 19.02735228 60.73231209 20.8906334 60.703125 22.75390625 C60.66201349 25.68310137 60.62511628 28.61213803 60.59863281 31.54150391 C60.57081739 34.37436132 60.52493042 37.20649093 60.4765625 40.0390625 C60.47330963 40.9018985 60.47005676 41.7647345 60.46670532 42.65371704 C60.3332098 49.34610312 59.39121722 55.94597204 55.16796875 61.33984375 C54.51441406 61.86707031 53.86085937 62.39429688 53.1875 62.9375 C52.54167969 63.48277344 51.89585937 64.02804688 51.23046875 64.58984375 C45.60063852 68.14915849 40.08490175 68.36484292 33.625 68.375 C32.81289062 68.39949219 32.00078125 68.42398438 31.1640625 68.44921875 C23.80416293 68.48460288 18.76539498 66.28445672 13.125 61.625 C8.29265089 55.65562757 8.66731706 49.02819973 8.5859375 41.6953125 C8.56657135 40.61619598 8.5472052 39.53707947 8.5272522 38.42526245 C8.46766058 34.99192105 8.42115239 31.55854576 8.375 28.125 C8.33680147 25.79165236 8.29774865 23.45831854 8.2578125 21.125 C8.16197583 15.41678968 8.07686888 9.70849556 8 4 C5.36 3.34 2.72 2.68 0 2 C0 1.34 0 0.68 0 0 Z " fill="#FFFFFF" transform="translate(137,4)"/>
<path d="M0 0 C0.94875 0.495 1.8975 0.99 2.875 1.5 C4.195 1.5 5.515 1.5 6.875 1.5 C7.205 0.51 7.535 -0.48 7.875 -1.5 C8.865 -1.5 9.855 -1.5 10.875 -1.5 C11.58276992 5.85575165 12.02215692 13.1094524 11.875 20.5 C10.555 20.5 9.235 20.5 7.875 20.5 C7.66746094 19.84773438 7.45992187 19.19546875 7.24609375 18.5234375 C5.03278626 12.24468237 2.72248474 7.92291789 -3.125 4.5 C-8.6492531 2.06410887 -12.55294747 2.4104803 -18.125 4.5 C-18.48549189 5.86320462 -18.78640247 7.24223053 -19.0625 8.625 C-19.23652344 9.39070312 -19.41054687 10.15640625 -19.58984375 10.9453125 C-18.80934367 15.23478353 -15.5750037 17.09786317 -12.125 19.5 C-9.16856849 21.31719194 -6.1369661 22.95475167 -3.0625 24.5625 C5.31765055 28.96468697 12.82767358 32.98138488 15.875 42.5 C16.83415895 48.09835634 15.99065154 52.70610312 13.2109375 57.64453125 C9.77024573 62.42326982 5.49552318 65.7284884 -0.125 67.5 C-9.2215648 68.39406237 -16.99214523 67.78649287 -25.125 63.5 C-26.0221875 64.49 -26.0221875 64.49 -26.9375 65.5 C-29.125 67.5 -29.125 67.5 -32.125 67.5 C-32.125 59.25 -32.125 51 -32.125 42.5 C-31.135 42.5 -30.145 42.5 -29.125 42.5 C-28.79628906 43.46099609 -28.79628906 43.46099609 -28.4609375 44.44140625 C-25.78761522 51.73327313 -22.81852434 57.19154729 -16.125 61.375 C-11.19619731 63.22330101 -8.48250143 63.95250048 -3.375 62.25 C0.06284519 60.7269796 0.06284519 60.7269796 1.875 57.5 C2.49730695 53.49945533 2.17615406 51.93772393 -0.140625 48.5703125 C-3.29420125 44.95608267 -7.03226016 43.20629364 -11.3125 41.1875 C-18.96498636 37.3583858 -27.37153756 33.01566604 -31.35546875 25.03515625 C-33.06937575 19.3888332 -32.95711919 13.6139332 -30.5625 8.1875 C-24.73455092 -2.0946673 -10.40834975 -4.81783875 0 0 Z " fill="#FFFFFF" transform="translate(244.125,4.5)"/>
<path d="M0 0 C10.89 0 21.78 0 33 0 C33 0.66 33 1.32 33 2 C31.35 2.66 29.7 3.32 28 4 C28.60631917 7.96149465 29.84797404 10.98723529 31.72265625 14.51953125 C32.52993164 16.0519043 32.52993164 16.0519043 33.35351562 17.61523438 C33.91748047 18.67033203 34.48144531 19.72542969 35.0625 20.8125 C35.63033203 21.88693359 36.19816406 22.96136719 36.78320312 24.06835938 C38.18314418 26.71530675 39.58890112 29.35898899 41 32 C41.66 32 42.32 32 43 32 C44.998045 28.65674548 46.96988947 25.2987416 48.9375 21.9375 C49.50146484 20.99455078 50.06542969 20.05160156 50.64648438 19.08007812 C53.61574964 13.97720908 55.74450392 9.94234434 56 4 C54.02 3.34 52.04 2.68 50 2 C50 1.34 50 0.68 50 0 C57.26 0 64.52 0 72 0 C71 3 71 3 68.6953125 4.3125 C63.72074918 7.42700921 61.28446379 12.93859132 58.32373047 17.87548828 C56.94549284 20.08748088 55.47125322 22.20786318 53.97265625 24.33984375 C45.51399303 36.87883774 44.67937545 47.09961997 46 62 C48.97 62.99 51.94 63.98 55 65 C55 65.66 55 66.32 55 67 C42.46 67 29.92 67 17 67 C17 66.34 17 65.68 17 65 C19.97 64.01 22.94 63.02 26 62 C28.52955314 43.08857891 21.85201935 30.79511951 12 15 C11.08371826 13.44200684 11.08371826 13.44200684 10.14892578 11.85253906 C9.55450684 10.8622168 8.96008789 9.87189453 8.34765625 8.8515625 C7.82308838 7.96549316 7.29852051 7.07942383 6.75805664 6.16650391 C4.71378766 3.64729228 3.06767119 2.93308468 0 2 C0 1.34 0 0.68 0 0 Z " fill="#FFFFFF" transform="translate(63,4)"/>
<path d="M0 0 C1.88671875 0.08056641 1.88671875 0.08056641 4 1 C5.45703125 3.43896484 5.45703125 3.43896484 6.8125 6.7109375 C7.32498291 7.92394531 7.83746582 9.13695312 8.36547852 10.38671875 C8.63192169 11.03688965 8.89836487 11.68706055 9.17288208 12.35693359 C10.00547058 14.38834755 10.85532858 16.41167392 11.71069336 18.43359375 C12.89160962 21.22668512 14.06663913 24.02213807 15.23779297 26.81933594 C17.93731336 33.24612708 20.74328962 39.62502084 23.5625 46 C24.05041016 47.11938965 24.53832031 48.2387793 25.04101562 49.39208984 C28.64668024 58.52904514 28.64668024 58.52904514 35.25 65.375 C35.8275 65.58125 36.405 65.7875 37 66 C37 66.66 37 67.32 37 68 C25.78 68 14.56 68 3 68 C3 67.34 3 66.68 3 66 C6.465 65.01 6.465 65.01 10 64 C9.30057575 58.54449082 7.81999788 54.45999363 6 49 C-1.26 49 -8.52 49 -16 49 C-18.75160167 56.19992873 -18.75160167 56.19992873 -19 63 C-15.04 64.485 -15.04 64.485 -11 66 C-11 66.66 -11 67.32 -11 68 C-18.92 68 -26.84 68 -35 68 C-34 65 -34 65 -31.20507812 63.33740234 C-27.04010791 60.29996901 -25.73082212 57.24123027 -23.71875 52.6015625 C-23.34141724 51.76887848 -22.96408447 50.93619446 -22.57531738 50.07827759 C-21.36500823 47.39336792 -20.18105607 44.6978908 -19 42 C-18.20375873 40.20642426 -17.40688464 38.41312931 -16.609375 36.62011719 C-14.21541779 31.21552935 -11.85489814 25.79669713 -9.5 20.375 C-8.28839846 17.58773858 -7.07589575 14.80088699 -5.86047363 12.01528931 C-5.11364146 10.30353607 -4.36900323 8.59082352 -3.62683105 6.87704468 C-1.11251918 1.11251918 -1.11251918 1.11251918 0 0 Z M-5 25 C-6.13011652 27.2058424 -7.25415788 29.41445027 -8.375 31.625 C-8.69210938 32.24246094 -9.00921875 32.85992187 -9.3359375 33.49609375 C-9.6453125 34.10839844 -9.9546875 34.72070312 -10.2734375 35.3515625 C-10.55622559 35.90666504 -10.83901367 36.46176758 -11.13037109 37.03369141 C-12.27198289 39.61497759 -13.1074578 42.32237339 -14 45 C-8.06 45 -2.12 45 4 45 C1.36 38.4 -1.28 31.8 -4 25 C-4.33 25 -4.66 25 -5 25 Z " fill="#FFFFFF" transform="translate(35,3)"/>
</svg>
