<svg xmlns="http://www.w3.org/2000/svg" version="1.1" xmlns:xlink="http://www.w3.org/1999/xlink" width="1119.6141264310188" height="200" viewBox="-1.1349999904632568 9.806922912597656 215.05967712402344 30.203079223632812"><path d="M11.37 14.39L11.37 14.39Q12.27 13.48 12.58 13.55Q12.89 13.63 13.16 13.87Q13.44 14.10 13.48 14.41Q13.52 14.73 13.53 15.45Q13.54 16.17 13.65 16.45Q13.77 16.72 14.00 18.20Q14.24 19.69 14.26 20.01Q14.28 20.33 14.43 20.98Q14.59 21.62 16.10 21.29Q17.62 20.96 19.09 20.55Q20.57 20.14 21.27 19.91Q21.97 19.69 19.79 20.60Q17.60 21.50 16.74 22.03Q15.88 22.56 15.19 23.09Q14.49 23.61 14.48 24.35Q14.47 25.08 14.32 26.37Q14.16 27.66 14.00 28.63Q13.85 29.61 13.77 30.23Q13.69 30.86 13.34 31.45Q12.99 32.03 12.56 32.11Q12.13 32.19 11.86 31.84Q11.58 31.48 11.78 30.11Q11.97 28.73 12.17 27.65Q12.36 26.56 12.54 25.29Q12.71 24.02 11.72 24.16Q10.72 24.30 9.63 24.45Q8.54 24.61 7.44 24.75Q6.35 24.88 5.62 25.24Q4.88 25.61 3.04 28.12Q1.19 30.63 0.63 31.41Q0.06 32.19-0.39 32.19Q-0.84 32.19-1.04 31.85Q-1.23 31.50-1.04 30.84Q-0.86 30.18 0.32 28.37Q1.50 26.56 3.07 24.65Q4.63 22.73 5.66 21.55Q6.70 20.37 7.53 19.23Q8.36 18.09 9.41 16.70Q10.47 15.31 11.37 14.39ZM12.11 18.46L12.11 18.46Q11.91 17.09 11.36 17.78Q10.80 18.48 10.33 19.11Q9.86 19.75 8.42 21.34Q6.97 22.93 8.16 22.65Q9.36 22.36 11.04 22.19Q12.73 22.01 12.68 21.46Q12.62 20.92 12.47 20.37Q12.32 19.82 12.11 18.46ZM24.36 23.09L24.36 23.09Q24.73 22.70 25.23 22.83Q25.74 22.97 25.96 23.28Q26.17 23.59 26.10 23.93Q26.04 24.26 26.07 25.15Q26.11 26.04 25.93 27.70Q25.74 29.36 25.57 30.47Q25.39 31.58 24.77 33.04Q24.14 34.49 23.13 35.77Q22.11 37.05 20.73 38.00Q19.36 38.95 18.28 39.40Q17.21 39.86 16.58 39.96Q15.96 40.06 15.37 39.96Q14.79 39.86 14.36 39.11Q13.93 38.36 14.77 36.92Q15.61 35.49 15.05 36.78Q14.49 38.07 15.69 38.21Q16.89 38.36 17.73 37.91Q18.57 37.46 19.69 36.54Q20.80 35.63 21.40 34.95Q21.99 34.28 22.71 32.97Q23.42 31.66 23.80 30Q24.18 28.34 24.23 27.54Q24.28 26.74 24.25 26.61Q24.22 26.48 23.89 26.72Q23.55 26.95 23.19 27.34Q22.83 27.73 22.41 28.10Q21.99 28.46 21.11 29.11Q20.23 29.77 19.65 29.79Q19.06 29.80 18.51 29.57Q17.95 29.34 17.69 28.85Q17.42 28.36 17.42 27.72Q17.42 27.09 17.52 26.81Q17.62 26.52 18.05 24.94Q18.48 23.36 18.99 23.13Q19.51 22.91 19.81 22.93Q20.12 22.95 20.29 23.27Q20.47 23.59 20.25 24.06Q20.04 24.53 19.71 25.64Q19.38 26.76 19.44 27.36Q19.51 27.97 19.99 27.78Q20.47 27.60 20.90 27.28Q21.33 26.95 21.69 26.55Q22.05 26.15 23.03 24.81Q24.00 23.48 24.36 23.09ZM34.88 23.26L34.88 23.26Q35.29 23.05 35.60 23.11Q35.90 23.16 36.02 23.39Q36.13 23.61 35.78 25.09Q35.43 26.56 35.31 27.60Q35.20 28.63 35.51 29.05Q35.82 29.47 36.59 29.36Q37.36 29.24 38.26 28.32Q39.16 27.40 38.47 28.23Q37.77 29.06 37.18 29.73Q36.58 30.39 36.13 30.57Q35.68 30.74 35.09 30.64Q34.49 30.55 34.12 30.18Q33.75 29.80 33.54 29.29Q33.32 28.77 33.50 28.02Q33.67 27.27 33.72 26.72Q33.77 26.17 33.28 26.78Q32.79 27.38 32.08 28.10Q31.37 28.81 30.57 29.36Q29.77 29.90 29.31 30.06Q28.85 30.21 28.39 30.28Q27.93 30.35 27.54 30.12Q27.15 29.88 27.05 29.38Q26.95 28.89 27.25 27.90Q27.54 26.91 28.23 25.21Q28.93 23.52 27.83 23.40Q26.74 23.28 26.19 22.92Q25.64 22.56 26.86 23.02Q28.07 23.48 28.54 22.93Q29.00 22.38 29.40 22.29Q29.80 22.19 30.17 22.32Q30.53 22.46 30.63 22.80Q30.74 23.14 30.60 23.61Q30.45 24.08 29.60 26.07Q28.75 28.07 29.55 27.83Q30.35 27.60 32.42 25.53Q34.49 23.46 34.88 23.26ZM41.04 21.80L41.04 21.80Q41.82 21.41 42.60 21.29Q43.38 21.17 43.54 21.58Q43.71 21.99 43.39 22.38Q43.07 22.77 42.51 22.82Q41.95 22.87 41.31 23.62Q40.66 24.38 40.57 25.40Q40.47 26.43 40.62 26.82Q40.76 27.21 40.94 28.34Q41.11 29.47 40.70 30.28Q40.29 31.09 39.82 31.46Q39.36 31.84 38.66 32.01Q37.97 32.19 37.48 32.19Q36.99 32.19 36.44 31.95Q35.88 31.72 35.75 30.99Q35.63 30.25 37.80 28.27Q39.98 26.29 38.14 28.15Q36.31 30.02 36.71 30.47Q37.11 30.92 37.67 30.70Q38.22 30.49 38.54 30.13Q38.87 29.77 39.02 29.25Q39.18 28.73 39.16 28.29Q39.14 27.85 38.86 26.34Q38.57 24.82 38.86 24.06Q39.14 23.30 39.70 22.74Q40.25 22.19 41.04 21.80ZM49.51 10.47L49.51 10.47Q50.53 10.23 51.17 10.72Q51.82 11.21 50.92 12.44Q50.02 13.67 48.40 17.63Q46.78 21.58 46.29 23.24Q45.80 24.90 46.21 24.45Q46.62 24.00 47.02 23.64Q47.42 23.28 47.91 22.90Q48.40 22.52 48.80 22.34Q49.20 22.17 49.69 22.08Q50.18 21.99 50.58 22.22Q50.98 22.44 51.20 22.79Q51.43 23.14 51.47 24.06Q51.52 24.98 51.37 25.99Q51.21 26.99 51.35 27.50Q51.48 28.01 51.85 28.40Q52.21 28.79 53.09 28.58Q53.96 28.38 54.45 27.86Q54.94 27.34 54.68 27.93Q54.41 28.52 53.90 28.97Q53.38 29.43 52.64 29.78Q51.89 30.12 51.43 30.13Q50.96 30.14 50.47 29.74Q49.98 29.34 49.80 28.58Q49.63 27.83 49.73 26.25Q49.82 24.67 49.50 24.37Q49.18 24.06 47.84 25.06Q46.50 26.05 45.82 27.30Q45.14 28.55 44.80 29.42Q44.47 30.29 43.98 30.16Q43.50 30.02 43.22 29.71Q42.95 29.39 42.95 28.82Q42.95 28.24 44.12 24.36Q45.29 20.47 46.80 16.76Q48.30 13.05 48.55 12.25Q48.81 11.45 49.51 10.47ZM70.66 9.92L70.66 9.92Q71.00 9.71 71.39 9.89Q71.78 10.08 71.88 10.54Q71.99 11.00 72.21 11.32Q72.42 11.64 71.56 13.45Q70.70 15.25 69.79 17.42Q68.87 19.59 68.33 20.97Q67.79 22.34 68.01 22.65Q68.22 22.95 69.53 21.97Q70.84 21.00 71.90 20.17Q72.97 19.34 74.82 17.69Q76.68 16.04 77.31 15.58Q77.95 15.12 78.31 15.04Q78.67 14.96 79.17 15.18Q79.67 15.39 79.87 15.74Q80.08 16.09 79.87 16.46Q79.67 16.82 79.28 17.28Q78.89 17.73 78.17 18.06Q77.46 18.38 76.61 19.16Q75.76 19.94 75.40 20.15Q75.04 20.35 74.15 21.18Q73.26 22.01 71.57 23.18Q69.88 24.36 71.79 25.52Q73.69 26.68 74.37 27.07Q75.04 27.46 75.51 27.57Q75.98 27.68 76.37 27.85Q76.76 28.03 76.96 28.27Q77.17 28.52 76.86 28.77Q76.54 29.02 76.11 29.05Q75.68 29.08 74.79 29.05Q73.91 29.02 73.23 28.74Q72.56 28.46 71.82 28.10Q71.07 27.73 70.47 27.25Q69.86 26.76 69.50 26.57Q69.14 26.39 68.18 25.68Q67.23 24.98 66.91 25.12Q66.60 25.25 66.15 26.90Q65.70 28.55 64.44 31.54Q63.18 34.53 62.65 34.72Q62.11 34.90 61.93 34.55Q61.76 34.20 61.84 33.35Q61.91 32.50 62.33 31.37Q62.75 30.23 63.12 29.02Q63.48 27.81 64.46 25.01Q65.45 22.21 65.66 21.88Q65.88 21.56 66.20 20.78Q66.52 20 67.02 18.30Q67.52 16.60 67.87 15.89Q68.22 15.18 68.68 14.04Q69.14 12.91 69.25 12.48Q69.36 12.05 69.54 11.48Q69.73 10.92 70.04 10.53Q70.35 10.14 70.66 9.92ZM85.49 23.26L85.49 23.26Q85.90 23.05 86.20 23.11Q86.50 23.16 86.62 23.39Q86.74 23.61 86.39 25.09Q86.04 26.56 85.92 27.60Q85.80 28.63 86.11 29.05Q86.43 29.47 87.20 29.36Q87.97 29.24 88.87 28.32Q89.77 27.40 89.07 28.23Q88.38 29.06 87.78 29.73Q87.19 30.39 86.74 30.57Q86.29 30.74 85.69 30.64Q85.10 30.55 84.73 30.18Q84.36 29.80 84.14 29.29Q83.93 28.77 84.10 28.02Q84.28 27.27 84.33 26.72Q84.38 26.17 83.89 26.78Q83.40 27.38 82.69 28.10Q81.97 28.81 81.17 29.36Q80.37 29.90 79.91 30.06Q79.45 30.21 78.99 30.28Q78.54 30.35 78.14 30.12Q77.75 29.88 77.66 29.38Q77.56 28.89 77.85 27.90Q78.14 26.91 78.84 25.21Q79.53 23.52 78.44 23.40Q77.34 23.28 76.80 22.92Q76.25 22.56 77.46 23.02Q78.67 23.48 79.14 22.93Q79.61 22.38 80.01 22.29Q80.41 22.19 80.77 22.32Q81.13 22.46 81.24 22.80Q81.35 23.14 81.20 23.61Q81.05 24.08 80.21 26.07Q79.36 28.07 80.16 27.83Q80.96 27.60 83.03 25.53Q85.10 23.46 85.49 23.26ZM89.79 22.01L89.79 22.01Q90.53 21.00 91.00 21.04Q91.46 21.07 91.60 21.43Q91.74 21.78 91.84 22.08Q91.93 22.38 92.03 22.96Q92.13 23.54 91.24 25.20Q90.35 26.86 91.37 25.62Q92.38 24.38 93.11 24.07Q93.83 23.77 94.43 24.07Q95.04 24.38 95.20 24.80Q95.35 25.23 95.39 25.78Q95.43 26.33 95.55 26.41Q95.66 26.48 96.84 25.23Q98.01 23.98 98.90 23.58Q99.79 23.18 100.37 23.42Q100.96 23.65 101.40 24.34Q101.84 25.02 102.54 26.33Q103.24 27.64 103.99 28.25Q104.75 28.87 105.33 28.98Q105.92 29.10 107.36 28.35Q108.81 27.60 108.01 28.07Q107.21 28.54 106.40 28.88Q105.59 29.22 105.25 29.40Q104.92 29.59 104.35 29.73Q103.77 29.86 103.26 29.61Q102.75 29.36 102.29 28.96Q101.82 28.55 101.11 27.63Q100.41 26.70 100.11 26.25Q99.80 25.80 99.36 25.88Q98.91 25.96 98.42 26.38Q97.93 26.80 97.08 27.58Q96.23 28.36 95.75 29.22Q95.27 30.08 95.18 30.32Q95.08 30.57 94.67 31.01Q94.26 31.45 93.89 31.34Q93.52 31.23 93.35 30.95Q93.18 30.66 93.32 29.94Q93.46 29.22 93.54 28.55Q93.63 27.89 93.68 27.11Q93.73 26.33 93.22 26.28Q92.71 26.23 91.53 27.39Q90.35 28.55 90.04 29.20Q89.73 29.84 89.54 30.12Q89.36 30.39 89.15 30.55Q88.95 30.70 88.33 30.51Q87.71 30.31 87.64 30Q87.56 29.69 87.93 28.73Q88.30 27.77 88.91 25.78Q89.51 23.79 89.75 23.26Q89.98 22.73 86.49 25.18Q83.01 27.62 84.54 26.37Q86.07 25.12 87.56 24.07Q89.04 23.03 89.79 22.01ZM111.80 21.66L111.80 21.66Q112.25 21.54 112.78 21.62Q113.32 21.70 113.64 21.95Q113.96 22.21 114.26 22.95Q114.55 23.69 113.99 23.95Q113.44 24.20 112.99 23.77Q112.54 23.34 112.05 23.59Q111.56 23.85 111.08 24.11Q110.61 24.38 109.90 24.94Q109.20 25.51 108.46 26.39Q107.71 27.27 107.64 27.51Q107.56 27.75 108.02 27.44Q108.48 27.13 109.42 26.49Q110.37 25.86 111.81 25.20Q113.24 24.53 113.62 24.68Q114.00 24.82 114.28 25.21Q114.55 25.61 114.59 25.89Q114.63 26.17 114.50 26.34Q114.38 26.50 114.21 27.09Q114.04 27.68 114.24 28.22Q114.43 28.77 114.74 28.97Q115.04 29.18 115.57 29.09Q116.09 29.00 116.87 28.29Q117.64 27.58 116.80 28.62Q115.96 29.67 115.47 29.95Q114.98 30.23 114.71 30.22Q114.43 30.21 113.99 30.05Q113.55 29.88 113.16 29.53Q112.77 29.18 112.55 28.67Q112.32 28.16 112.25 27.92Q112.17 27.68 111.88 27.38Q111.60 27.09 111.19 27.26Q110.78 27.42 109.76 28.16Q108.73 28.91 107.84 29.38Q106.95 29.86 106.25 30.05Q105.55 30.23 105.34 30.18Q105.14 30.12 104.89 29.74Q104.65 29.36 104.61 28.91Q104.57 28.46 104.74 28.00Q104.90 27.54 105.99 26.16Q107.07 24.79 108.08 23.91Q109.08 23.03 110.21 22.41Q111.35 21.80 111.80 21.66ZM117.91 24.30L117.91 24.30Q118.61 21.58 119.27 21.64Q119.92 21.70 120.25 22.23Q120.59 22.75 120.19 23.53Q119.79 24.30 120.11 24.25Q120.43 24.20 120.96 23.86Q121.48 23.52 121.96 23.31Q122.44 23.11 122.73 23.05Q123.03 22.99 123.86 23.24Q124.69 23.50 125.43 23.96Q126.17 24.41 127.39 24.03Q128.61 23.65 127.13 24.29Q125.64 24.92 124.09 24.88Q122.54 24.84 121.69 25.25Q120.84 25.66 120.25 26.16Q119.67 26.66 119.17 27.80Q118.67 28.95 118.41 29.73Q118.14 30.51 117.94 31.01Q117.73 31.50 117.10 31.53Q116.46 31.56 116.26 31.07Q116.05 30.59 116.16 30.44Q116.27 30.29 116.75 28.65Q117.23 27.01 117.91 24.30ZM143.83 14.39L143.83 14.39Q144.73 13.48 145.04 13.55Q145.35 13.63 145.63 13.87Q145.90 14.10 145.94 14.41Q145.98 14.73 145.99 15.45Q146.00 16.17 146.11 16.45Q146.23 16.72 146.46 18.20Q146.70 19.69 146.72 20.01Q146.74 20.33 146.89 20.98Q147.05 21.62 148.56 21.29Q150.08 20.96 151.55 20.55Q153.03 20.14 153.73 19.91Q154.43 19.69 152.25 20.60Q150.06 21.50 149.20 22.03Q148.34 22.56 147.65 23.09Q146.95 23.61 146.94 24.35Q146.93 25.08 146.78 26.37Q146.62 27.66 146.46 28.63Q146.31 29.61 146.23 30.23Q146.15 30.86 145.80 31.45Q145.45 32.03 145.02 32.11Q144.59 32.19 144.32 31.84Q144.04 31.48 144.24 30.11Q144.43 28.73 144.63 27.65Q144.82 26.56 145 25.29Q145.18 24.02 144.18 24.16Q143.18 24.30 142.09 24.45Q141.00 24.61 139.90 24.75Q138.81 24.88 138.08 25.24Q137.34 25.61 135.50 28.12Q133.65 30.63 133.09 31.41Q132.52 32.19 132.07 32.19Q131.62 32.19 131.43 31.85Q131.23 31.50 131.42 30.84Q131.60 30.18 132.78 28.37Q133.96 26.56 135.53 24.65Q137.09 22.73 138.13 21.55Q139.16 20.37 139.99 19.23Q140.82 18.09 141.88 16.70Q142.93 15.31 143.83 14.39ZM144.57 18.46L144.57 18.46Q144.38 17.09 143.82 17.78Q143.26 18.48 142.79 19.11Q142.32 19.75 140.88 21.34Q139.43 22.93 140.63 22.65Q141.82 22.36 143.51 22.19Q145.20 22.01 145.14 21.46Q145.08 20.92 144.93 20.37Q144.79 19.82 144.57 18.46ZM157.75 21.93L157.75 21.93Q159.20 22.03 158.90 22.66Q158.59 23.28 158.28 24.84Q157.97 26.41 157.70 27.49Q157.42 28.57 156.91 29.78Q156.41 30.98 156.12 31.63Q155.84 32.29 155.42 33.11Q155 33.93 154.03 35.43Q153.07 36.93 151.81 38.02Q150.55 39.10 149.76 39.32Q148.96 39.53 147.98 39.18Q146.99 38.83 146.91 37.66Q146.84 36.48 149.67 33.83Q152.50 31.17 150.01 33.63Q147.52 36.09 147.48 37.01Q147.44 37.93 147.90 38.07Q148.36 38.20 148.82 38.03Q149.28 37.85 150.07 37.20Q150.86 36.54 151.40 35.98Q151.93 35.41 152.70 34.24Q153.46 33.07 154.07 31.74Q154.69 30.41 154.91 29.89Q155.14 29.38 155.72 27.73Q156.31 26.09 155.55 26.89Q154.79 27.70 153.54 28.64Q152.30 29.59 151.50 29.84Q150.70 30.10 150.28 29.98Q149.86 29.86 149.54 29.50Q149.22 29.14 149.42 28.08Q149.63 27.01 150.45 25.54Q151.27 24.06 152.36 23.27Q153.46 22.48 154.32 22.15Q155.18 21.82 155.66 21.84Q156.15 21.86 156.77 22.12Q157.38 22.38 157.75 21.93ZM155.66 24.00L155.66 24.00Q155.33 23.67 154.67 24.07Q154.00 24.47 153.18 25.28Q152.36 26.09 151.82 27.01Q151.27 27.93 152.34 27.29Q153.42 26.64 154.28 25.88Q155.14 25.12 155.55 24.63Q155.96 24.14 155.66 24.00ZM160.74 24.30L160.74 24.30Q161.45 21.58 162.10 21.64Q162.75 21.70 163.09 22.23Q163.42 22.75 163.02 23.53Q162.62 24.30 162.94 24.25Q163.26 24.20 163.79 23.86Q164.32 23.52 164.79 23.31Q165.27 23.11 165.57 23.05Q165.86 22.99 166.69 23.24Q167.52 23.50 168.26 23.96Q169.00 24.41 170.22 24.03Q171.45 23.65 169.96 24.29Q168.48 24.92 166.92 24.88Q165.37 24.84 164.52 25.25Q163.67 25.66 163.09 26.16Q162.50 26.66 162.00 27.80Q161.50 28.95 161.24 29.73Q160.98 30.51 160.77 31.01Q160.57 31.50 159.93 31.53Q159.30 31.56 159.09 31.07Q158.89 30.59 158.99 30.44Q159.10 30.29 159.58 28.65Q160.06 27.01 160.74 24.30ZM174.82 21.66L174.82 21.66Q175.27 21.54 175.81 21.62Q176.35 21.70 176.67 21.95Q176.99 22.21 177.29 22.95Q177.58 23.69 177.02 23.95Q176.46 24.20 176.02 23.77Q175.57 23.34 175.08 23.59Q174.59 23.85 174.11 24.11Q173.63 24.38 172.93 24.94Q172.23 25.51 171.48 26.39Q170.74 27.27 170.66 27.51Q170.59 27.75 171.04 27.44Q171.50 27.13 172.45 26.49Q173.40 25.86 174.83 25.20Q176.27 24.53 176.65 24.68Q177.03 24.82 177.30 25.21Q177.58 25.61 177.62 25.89Q177.66 26.17 177.53 26.34Q177.40 26.50 177.24 27.09Q177.07 27.68 177.27 28.22Q177.46 28.77 177.76 28.97Q178.07 29.18 178.59 29.09Q179.12 29.00 179.89 28.29Q180.66 27.58 179.82 28.62Q178.98 29.67 178.50 29.95Q178.01 30.23 177.73 30.22Q177.46 30.21 177.02 30.05Q176.58 29.88 176.19 29.53Q175.80 29.18 175.58 28.67Q175.35 28.16 175.27 27.92Q175.20 27.68 174.91 27.38Q174.63 27.09 174.22 27.26Q173.81 27.42 172.78 28.16Q171.76 28.91 170.87 29.38Q169.98 29.86 169.28 30.05Q168.57 30.23 168.37 30.18Q168.16 30.12 167.92 29.74Q167.68 29.36 167.64 28.91Q167.60 28.46 167.76 28.00Q167.93 27.54 169.01 26.16Q170.10 24.79 171.10 23.91Q172.11 23.03 173.24 22.41Q174.38 21.80 174.82 21.66ZM181.15 23.13L181.15 23.13Q181.11 22.15 181.73 22.06Q182.34 21.97 182.76 22.25Q183.18 22.52 183.15 24.68Q183.13 26.84 184.52 25.47Q185.92 24.10 186.81 23.73Q187.70 23.36 188.12 24.11Q188.54 24.86 188.28 26.85Q188.03 28.83 188.45 27.83Q188.87 26.84 189.11 26.11Q189.36 25.39 189.88 24.69Q190.41 23.98 191.16 23.51Q191.91 23.03 192.72 23.84Q193.54 24.65 195.99 24.26Q198.44 23.87 196.63 24.25Q194.82 24.63 193.40 24.69Q191.97 24.75 191.47 25.57Q190.98 26.39 190.72 27.19Q190.47 27.99 189.60 29.42Q188.73 30.86 188.28 31.24Q187.83 31.62 187.57 31.46Q187.30 31.31 186.88 30.56Q186.46 29.80 186.56 28.03Q186.66 26.25 186.05 26.55Q185.45 26.86 183.97 28.54Q182.50 30.21 182.04 30.20Q181.58 30.18 181.35 29.74Q181.11 29.30 181.37 28.38Q181.62 27.46 181.57 26.55Q181.52 25.64 181.45 25.20Q181.37 24.75 181.28 24.41Q181.19 24.08 181.15 23.13ZM199.80 21.66L199.80 21.66Q200.25 21.54 200.79 21.62Q201.33 21.70 201.65 21.95Q201.97 22.21 202.27 22.95Q202.56 23.69 202.00 23.95Q201.45 24.20 201.00 23.77Q200.55 23.34 200.06 23.59Q199.57 23.85 199.09 24.11Q198.61 24.38 197.91 24.94Q197.21 25.51 196.46 26.39Q195.72 27.27 195.64 27.51Q195.57 27.75 196.03 27.44Q196.48 27.13 197.43 26.49Q198.38 25.86 199.81 25.20Q201.25 24.53 201.63 24.68Q202.01 24.82 202.29 25.21Q202.56 25.61 202.60 25.89Q202.64 26.17 202.51 26.34Q202.38 26.50 202.22 27.09Q202.05 27.68 202.25 28.22Q202.44 28.77 202.74 28.97Q203.05 29.18 203.57 29.09Q204.10 29.00 204.87 28.29Q205.64 27.58 204.80 28.62Q203.96 29.67 203.48 29.95Q202.99 30.23 202.71 30.22Q202.44 30.21 202.00 30.05Q201.56 29.88 201.17 29.53Q200.78 29.18 200.56 28.67Q200.33 28.16 200.25 27.92Q200.18 27.68 199.89 27.38Q199.61 27.09 199.20 27.26Q198.79 27.42 197.76 28.16Q196.74 28.91 195.85 29.38Q194.96 29.86 194.26 30.05Q193.55 30.23 193.35 30.18Q193.14 30.12 192.90 29.74Q192.66 29.36 192.62 28.91Q192.58 28.46 192.74 28.00Q192.91 27.54 193.99 26.16Q195.08 24.79 196.08 23.91Q197.09 23.03 198.22 22.41Q199.36 21.80 199.80 21.66ZM209.65 15.94L209.65 15.94Q210.43 14.71 210.95 14.94Q211.46 15.18 211.50 15.55Q211.54 15.92 209.81 19.36Q208.09 22.79 207.31 25.75Q206.54 28.71 206.78 29.08Q207.01 29.45 207.62 29.30Q208.22 29.14 210.70 27.61Q213.18 26.07 213.75 25.60Q214.32 25.12 213.03 26.32Q211.74 27.52 211.08 28.12Q210.43 28.71 209.79 29.40Q209.14 30.10 208.21 30.61Q207.29 31.11 206.59 31.16Q205.90 31.21 205.58 30.84Q205.25 30.47 204.96 29.94Q204.67 29.41 204.91 28.00Q205.16 26.58 206.27 23.38Q207.38 20.18 208.13 18.66Q208.87 17.15 209.65 15.94Z" fill="black"></path></svg>